<?xml version="1.0" encoding="iso-8859-1"?>
<!-- Generator: Adobe Illustrator 16.0.0, SVG Export Plug-In . SVG Version: 6.00 Build 0)  -->
<!DOCTYPE svg PUBLIC "-//W3C//DTD SVG 1.1//EN" "http://www.w3.org/Graphics/SVG/1.1/DTD/svg11.dtd">
<svg version="1.1" id="Capa_1" xmlns="http://www.w3.org/2000/svg" xmlns:xlink="http://www.w3.org/1999/xlink" x="0px" y="0px"
	 width="193.165px" height="193.165px" viewBox="0 0 193.165 193.165" style="enable-background:new 0 0 193.165 193.165;"
	 xml:space="preserve">
<g>
	<path d="M189.112,129.618c-9.283-15.474-31.266-20.85-47.501-23.654c-2.328-0.401-4.692-0.744-7.066-1.067
		c-0.008-1.582-0.011-3.165,0.005-4.747c13.87-1.196,23.8-17.98,30.26-33.631c0.395,0.096,0.824,0.145,1.317,0.093
		c4.956-0.515,9.703-2.012,13.591-4.639c2.922-1.06,5.521-2.677,7.274-5.078c2.134-2.921,2.308-6.404,1.54-9.758
		c0.237-7.472-5.166-14.118-11.028-18.416c-2.856-2.095-6.018-3.384-9.235-3.946c-3.958-1.519-8.022-1.752-11.678,0.367
		c-1.15,0.667-1.992,1.568-2.694,2.561c-0.944,0.617-1.863,1.301-2.732,2.095c-2.595,2.372-5.479,9.387-3.805,13.114
		c-13.434-1.106-26.775-2.645-40.091-5.275c-2.043-0.404-2.767,2.355-0.85,3.083c17.69,6.724,37.637,10.423,56.609,9.784
		c-5.935,15.45-14.636,40.919-29.646,42.538c-9.388,1.012-15.129-20.762-17.462-26.845c-3.39-8.84-6.374-17.917-10.55-26.432
		c-1.03-2.099-4.472-0.62-3.757,1.584c4.121,12.699,6.798,25.644,11.877,38.056c3.014,7.367,7.685,18.849,16.694,20.556
		c-0.295,1.434-0.537,2.875-0.803,4.314c-17.583-1.975-36.019-2.026-53.343-1.098c-0.451-7.674-1.12-15.339-1.803-22.987
		c-1.369-15.327-1.535-33.785-7.392-48.125c-0.775-1.896-2.924-2.071-3.967-0.796c-0.015-0.02-0.022-0.044-0.037-0.063
		c-8.443-10.66-28.654-3.918-38.301,1.224c-0.206,0.11-0.349,0.257-0.492,0.403c-1.714,0.231-3.437,1.724-3.121,3.944
		c3.35,23.526,6.987,46.888,9.995,70.385c-22.463-0.07-41.226,18.373-24.524,39.989c10.269,13.291,32.908,17.667,48.269,19.655
		c25.433,3.292,50.974,2.068,76.541,2.015c16.738-0.035,35.069,3.705,50.272-5.185C194.313,156.133,196.127,141.313,189.112,129.618
		z M155.376,43.552c-0.149-2.504-0.204-5.197,0.256-7.735c0.459-0.584,0.991-1.162,1.586-1.749c3.218-3.174,7.01-3.753,10.702-2.882
		c2.196,1.16,4.233,2.621,6.091,4.259c3.133,2.762,6.146,6.191,7.869,10.02c0.094,1.397-0.037,2.831-0.476,4.277
		c-1.151,3.788-4.393,6.072-8.027,7.439c-1.686,0.149-3.366,0.089-5.045,0.049c1.406-4.024,2.556-7.703,3.451-10.668
		c1.077-3.567-4.528-6.065-6.105-2.574c-0.102,0.225-0.206,0.471-0.31,0.708c-0.459-0.31-0.99-0.553-1.678-0.595
		C160.913,43.93,158.143,43.746,155.376,43.552z M128.188,111.288c-0.096,0.613-0.168,1.229-0.26,1.843
		c-16.771-2.962-34.646-0.752-51.426,1.217c-0.044-1.932-0.101-3.862-0.184-5.793C93.602,110.914,110.918,110.161,128.188,111.288z
		 M75.986,135.004c0.424-5.15,0.574-10.306,0.568-15.46c16.867-1.045,33.857-2.898,50.536-0.43
		c-0.561,4.209-1.085,8.423-1.562,12.643c-0.03,0.263-0.026,0.512-0.002,0.751c-2.728,0.329-5.419,0.898-7.996,1.644
		c-3.236,0.936-1.847,5.514,1.366,4.955c6.296-1.096,11.689-0.296,17.836,1.046c4.583,1.001,6.537-5.93,1.942-7.048
		c-1.674-0.407-3.387-0.665-5.117-0.801c0.564-3.925,0.816-7.856,0.937-11.792c1.355,0.316,2.71,0.665,4.061,1.052
		c8.397,2.41,33.565,13.095,18.559,24.441c-7.439,5.625-18.661,6.686-27.531,7.316c-19.79,1.408-39.615,2.623-59.434,1.135
		c-11.1-0.833-23.396-3.149-32.281-10.248c-6.91-5.521-14.025-16.949-5.129-22.092c0.552,4.829,1.078,9.664,1.551,14.512
		c0.213,2.187,2.222,3.009,3.736,2.435c10.2,4.639,27.437,7.229,34.824-3.468C73.337,137.292,75.85,136.663,75.986,135.004z
		 M27.266,36.08c5.359-1.631,10.636-3.136,16.233-3.804c6.453-0.771,11.716,2.201,17.866,2.489c0.321,0.015,0.59-0.05,0.834-0.146
		c-0.013,0.193-0.005,0.393-0.017,0.587c-0.434-0.154-0.927-0.211-1.484-0.075c-5.677,1.393-10.434,4.218-16.447,4.841
		C38.28,40.59,32.035,39.912,27.266,36.08L27.266,36.08z M28.211,41.481c8.048,6.892,26.673,5.237,33.815-1.086
		c0.014,15.085,3.71,31.148,5.168,45.885c1.469,14.854,2.424,29.795,4.812,44.537c-0.49-0.185-1.044-0.224-1.617-0.052
		c-4.538,1.357-8.224,4.261-12.926,5.492c-5.783,1.514-12.089-0.036-17.639-1.853c0.367-6.781,0.259-13.582-0.159-20.388
		c1.8,15.178,6.699,27.122,19.122,21.216c8.636-4.106,5.658-22.361,4.922-29.256c-1.375-12.88-4.666-25.365-7.036-38.062
		c-0.196-1.053-1.37-1.494-2.302-1.307c-4.97,0.995-9.67,0.658-14.553,1.86c-1.477,0.364-1.423,1.91-0.563,2.692
		c-0.077,0.146-0.129,0.307-0.117,0.501c0.255,4.259-0.885,18.886-0.207,33.2C36.776,83.583,31.942,62.312,28.211,41.481z
		 M41.35,71.551c3.096-0.329,7.283-0.063,10.356-0.643c2.401-0.453,1.411-1.447,2.135,1.847c1.002,4.563,2.038,9.118,2.99,13.692
		c2.459,11.813,4.731,24.028,3.992,36.139c-0.441,7.228-3.694,12.354-11.385,8.751c-6.614-3.097-6.029-15.989-6.412-21.973
		C42.222,96.794,43.453,84.015,41.35,71.551z M172.579,161.232c-11.16,4.454-25.83,2.106-37.562,1.724
		c-30.312-0.988-60.168,2.372-90.228-3.538c-14.315-2.814-31.869-8.44-37.992-23.034c-6.67-15.897,11.878-22.985,24.642-25.196
		c0.244,1.956,0.465,3.918,0.698,5.877c-17.188,1.448-8.108,22.141,1.675,31.2c22.288,20.636,68.736,12.356,95.768,10.652
		c13.007-0.819,46.774-6.776,36.334-27.174c-5.078-9.92-20.331-14.697-31.329-17.274c0.001-0.892,0.009-1.782,0.005-2.674
		c6.812,0.662,13.614,1.719,20.403,3.482C173.639,120.123,207.113,147.448,172.579,161.232z"/>
	<path d="M150.696,59.157c-9.08-0.155-17.921-1.727-26.846-3.27c-2.207-0.382-3.618,1.517-3.597,3.208
		c-0.819-0.226-1.874,0.425-1.657,1.538c1.774,9.085,6.186,17.155,10.767,25.098c0.467,0.81,1.502,1.258,2.41,0.981
		c11.302-3.451,17.769-13.415,21.583-24.062C153.976,60.917,152.38,59.186,150.696,59.157z M131.958,81.833
		c-4.131-6.604-8.268-13.227-10.522-20.725c0.261,0.143,0.526,0.282,0.883,0.34c8.134,1.333,16.22,2.647,24.437,3.051
		C143.676,71.75,138.954,78.012,131.958,81.833z"/>
</g>
<g>
</g>
<g>
</g>
<g>
</g>
<g>
</g>
<g>
</g>
<g>
</g>
<g>
</g>
<g>
</g>
<g>
</g>
<g>
</g>
<g>
</g>
<g>
</g>
<g>
</g>
<g>
</g>
<g>
</g>
</svg>
