<?xml version="1.0" encoding="iso-8859-1"?>
<!-- Generator: Adobe Illustrator 18.0.0, SVG Export Plug-In . SVG Version: 6.00 Build 0)  -->
<!DOCTYPE svg PUBLIC "-//W3C//DTD SVG 1.1//EN" "http://www.w3.org/Graphics/SVG/1.1/DTD/svg11.dtd">
<svg version="1.1" id="Capa_1" xmlns="http://www.w3.org/2000/svg" xmlns:xlink="http://www.w3.org/1999/xlink" x="0px" y="0px"
	 viewBox="0 0 53.638 53.638" style="enable-background:new 0 0 53.638 53.638;" xml:space="preserve">
<path d="M51.581,24.762c0-2.123-1.469-3.892-3.442-4.378c-0.554-2.715-1.62-5.286-3.152-7.596c1.056-1.74,0.845-4.033-0.659-5.536
	c-1.505-1.505-3.802-1.715-5.543-0.655c-2.307-1.525-4.873-2.588-7.584-3.139C30.722,1.477,28.948,0,26.819,0
	c-2.129,0-3.903,1.477-4.383,3.458c-2.711,0.551-5.277,1.614-7.584,3.139c-1.741-1.06-4.037-0.85-5.542,0.655
	c-1.503,1.503-1.714,3.797-0.658,5.537c-1.548,2.344-2.585,4.925-3.132,7.588c-1.984,0.479-3.463,2.253-3.463,4.385
	c0,2.127,1.474,3.899,3.453,4.381c0.543,2.672,1.58,5.261,3.13,7.613c-1.042,1.737-0.828,4.018,0.67,5.515
	c1.495,1.495,3.772,1.71,5.508,0.673c0.635,0.422,1.293,0.802,1.965,1.153l-2.844,6.541H8.985c-0.828,0-1.5,0.671-1.5,1.5
	c0,0.829,0.672,1.5,1.5,1.5h5.937c0.597,0,1.138-0.354,1.376-0.902l3.242-7.456c0.949,0.336,1.915,0.626,2.908,0.828
	c0.496,1.96,2.256,3.416,4.37,3.417c2.114,0,3.875-1.457,4.37-3.417c0.993-0.201,1.959-0.491,2.908-0.828l3.243,7.456
	c0.238,0.548,0.779,0.902,1.376,0.902h5.73c0.828,0,1.5-0.671,1.5-1.5c0-0.829-0.672-1.5-1.5-1.5H39.7l-2.845-6.541
	c0.672-0.35,1.33-0.731,1.965-1.153c1.737,1.037,4.013,0.822,5.508-0.673c1.497-1.497,1.711-3.778,0.669-5.515
	c1.533-2.317,2.601-4.895,3.151-7.619C50.118,28.647,51.581,26.882,51.581,24.762z M30.903,43.09
	c-0.722-1.538-2.273-2.61-4.084-2.61c-1.811,0-3.363,1.072-4.084,2.61c-0.678-0.15-1.342-0.341-1.996-0.565l5.761-13.25
	c0.212,0.014,0.423,0.012,0.635-0.003l5.763,13.253C32.246,42.748,31.581,42.94,30.903,43.09z M29.885,28.071
	c0.036-0.034,0.077-0.057,0.112-0.092c1.766-1.766,1.766-4.63,0-6.396c-1.766-1.766-4.629-1.766-6.396,0
	c-1.766,1.766-1.766,4.629,0,6.396c0.044,0.044,0.095,0.073,0.14,0.115L17.98,41.346c-0.421-0.225-0.827-0.481-1.231-0.739
	c0.576-1.597,0.237-3.451-1.043-4.731c-1.278-1.278-3.127-1.617-4.723-1.046c-1.185-1.868-2.004-3.9-2.465-5.998
	c1.524-0.727,2.584-2.269,2.584-4.07c0-1.798-1.057-3.337-2.576-4.066c0.465-2.098,1.286-4.129,2.476-5.996
	c1.591,0.562,3.431,0.221,4.704-1.052c1.272-1.272,1.613-3.109,1.053-4.699c1.841-1.174,3.863-2.011,5.995-2.481
	c0.729,1.519,2.268,2.576,4.066,2.576c1.797,0,3.337-1.057,4.066-2.576c2.132,0.469,4.155,1.306,5.995,2.481
	c-0.56,1.59-0.219,3.427,1.053,4.698c1.273,1.273,3.113,1.614,4.705,1.051c1.177,1.839,2.015,3.859,2.487,5.99
	c-1.526,0.726-2.589,2.27-2.589,4.073c0,1.806,1.066,3.353,2.597,4.078c-0.468,2.131-1.304,4.151-2.476,5.991
	c-1.596-0.573-3.446-0.233-4.725,1.045c-1.28,1.28-1.619,3.134-1.043,4.731c-0.404,0.258-0.81,0.513-1.231,0.739L29.885,28.071z"/>
<g>
</g>
<g>
</g>
<g>
</g>
<g>
</g>
<g>
</g>
<g>
</g>
<g>
</g>
<g>
</g>
<g>
</g>
<g>
</g>
<g>
</g>
<g>
</g>
<g>
</g>
<g>
</g>
<g>
</g>
</svg>
