<?xml version="1.0" encoding="iso-8859-1"?>
<!-- Generator: Adobe Illustrator 16.0.0, SVG Export Plug-In . SVG Version: 6.00 Build 0)  -->
<!DOCTYPE svg PUBLIC "-//W3C//DTD SVG 1.1//EN" "http://www.w3.org/Graphics/SVG/1.1/DTD/svg11.dtd">
<svg version="1.1" id="Capa_1" xmlns="http://www.w3.org/2000/svg" xmlns:xlink="http://www.w3.org/1999/xlink" x="0px" y="0px"
	 width="46.441px" height="46.441px" viewBox="0 0 46.441 46.441" style="enable-background:new 0 0 46.441 46.441;"
	 xml:space="preserve">
<g>
	<g>
		<path d="M41,40.668l-9.935-4.131l9.943-4.104c1.532-0.634,2.262-2.388,1.632-3.92c-0.635-1.53-2.392-2.262-3.921-1.63
			L23.225,33.28L7.746,26.844c-1.528-0.635-3.288,0.091-3.925,1.621c-0.635,1.53,0.09,3.286,1.62,3.922l9.938,4.133l-9.948,4.104
			c-1.531,0.634-2.262,2.388-1.629,3.92C4.281,45.701,5.398,46.4,6.578,46.4c0.381,0,0.769-0.072,1.143-0.229l15.497-6.396
			l15.479,6.434c0.377,0.156,0.767,0.231,1.15,0.231c1.177,0,2.293-0.696,2.772-1.852C43.255,43.061,42.531,41.303,41,40.668z"/>
		<path d="M23.22,29.458c7.015,0,12.698-5.686,12.698-12.697c0-1.76-0.801-4.083-1.999-6.573c-0.156-0.327-0.52-0.505-0.875-0.427
			c-0.354,0.077-0.611,0.389-0.617,0.752c-0.05,2.635-0.76,4.428-1.635,5.639c-0.104,0.142-0.294,0.185-0.449,0.103
			c-0.152-0.083-0.223-0.267-0.159-0.431c0.615-1.62,0.321-4.027-2.815-7.415c-2.937-3.172-3.661-5.664-3.524-7.484
			c0.028-0.361-0.174-0.701-0.506-0.849c-0.33-0.15-0.719-0.073-0.971,0.188c-2.998,3.113-6.689,8.206-5.618,13.365
			c0.045,0.219-0.071,0.437-0.279,0.519c-0.207,0.083-0.442,0.006-0.561-0.184c-0.764-1.23-1.46-3.069-1.203-5.495
			c0.041-0.395-0.2-0.765-0.579-0.884c-0.378-0.12-0.79,0.044-0.981,0.392c-1.38,2.485-2.621,5.605-2.621,8.785
			C10.524,23.773,16.207,29.458,23.22,29.458z"/>
	</g>
</g>
<g>
</g>
<g>
</g>
<g>
</g>
<g>
</g>
<g>
</g>
<g>
</g>
<g>
</g>
<g>
</g>
<g>
</g>
<g>
</g>
<g>
</g>
<g>
</g>
<g>
</g>
<g>
</g>
<g>
</g>
</svg>
