<?xml version="1.0" encoding="iso-8859-1"?>
<!-- Generator: Adobe Illustrator 16.0.0, SVG Export Plug-In . SVG Version: 6.00 Build 0)  -->
<!DOCTYPE svg PUBLIC "-//W3C//DTD SVG 1.1//EN" "http://www.w3.org/Graphics/SVG/1.1/DTD/svg11.dtd">
<svg version="1.1" id="Capa_1" xmlns="http://www.w3.org/2000/svg" xmlns:xlink="http://www.w3.org/1999/xlink" x="0px" y="0px"
	 width="503.169px" height="503.169px" viewBox="0 0 503.169 503.169" style="enable-background:new 0 0 503.169 503.169;"
	 xml:space="preserve">
<g>
	<g>
		<path d="M225.077,131.705c-2.926,4.571-7.334,7.134-9.84,5.728c-2.515-1.396-6.751,1.272-9.457,5.958L46.095,419.307
			c-2.715,4.686-7.822,11.791-11.398,15.864l-16.935,19.25c-3.576,4.073-5.25,11.637-2.687,16.399
			c12.297,22.825,38.872,29.997,53.263,32.235c5.355,0.841,11.246-3.118,13.072-8.233l7.622-21.258
			c1.817-5.106,5.661-12.947,8.568-17.537l174.506-275.611c2.906-4.581,1.415-10.433-3.309-13.082l-0.88-0.488
			c-4.733-2.639-6.168-8.462-3.204-13.005l22.08-33.813c2.965-4.542,9.734-7.755,15.128-7.201l6.771,0.708
			c5.384,0.574,13.206,3.758,17.461,7.115l56.964,45.106c4.246,3.375,10.872,3.069,14.793-0.669l4.867-4.628
			c3.931-3.739,5.164-10.71,2.63-15.5C351.531,43.252,272.085,9.42,245.015,0.498c-5.145-1.702-11.504,1.128-14.066,5.91
			l-14.927,27.817c-2.562,4.771-0.258,9.275,4.839,11.121c5.9,2.152,13.196,6.015,17.786,12.756
			c4.112,6.034,8.797,11.073,12.594,14.707c3.911,3.749,5.049,10.108,2.123,14.679L225.077,131.705z"/>
		<path d="M402.949,356.911c23.418-7.181,76.279-56.657,84.934-84.628c3.528-11.437-0.048-18.016-3.682-21.535
			c-5.221-5.058-10.557-7.564-15.902-7.544c-0.717-4.868-2.907-8.214-5.154-10.404c-3.892-3.777-7.851-6.101-11.819-7.057
			c-0.946-3.958-2.936-6.78-4.934-8.73c-5.814-5.642-11.791-8.147-17.748-7.439c-10.911,1.3-18.007,12.354-26.183,25.178
			c-3.796,5.958-7.736,12.125-12.192,17.509c-14.019,16.982-32.378,32.273-38.67,37.332c-1.139-0.459-2.267-0.947-3.434-1.349
			c-9.84-3.423-17.575-3.089-22.998,0.995c-3.48,2.61-5.077,6.062-5.813,8.931c-3.194,0.373-6.005,1.387-8.339,3.156
			c-3.471,2.61-5.077,6.062-5.813,8.94c-3.194,0.354-5.996,1.367-8.339,3.137c-3.471,2.601-5.059,6.072-5.813,8.94
			c-3.185,0.354-5.986,1.387-8.339,3.146c-3.462,2.61-5.068,6.062-5.805,8.941c-3.193,0.363-5.995,1.367-8.348,3.146
			c-3.586,2.696-5.164,6.282-5.872,9.209c-2.447,0.517-4.646,1.435-6.54,2.888c-6.712,5.039-6.483,13.302-6.426,14.22
			c0.115,2.17,1.243,3.987,2.878,5.135c-7.038,5.278-15.138,10.892-23.447,15.635c-6.072,3.48-12.804,6.312-19.307,9.046
			c-14.038,5.891-26.154,10.978-29.271,21.535c-1.692,5.756-0.239,12.067,4.332,18.752c1.54,2.237,3.997,4.6,7.755,6.081
			c0.21,4.16,1.836,8.55,4.954,13.11c1.759,2.572,4.686,5.308,9.429,6.685c-0.995,5.307,0.564,11.035,4.705,17.107
			c2.85,4.179,8.74,8.816,20.598,7.268c2.515-0.325,5.24-0.966,8.147-1.846c20.521-6.292,49.362-25.59,69.146-43.624
			c-0.162,2.936,1.559,5.757,4.466,6.799c1.77,0.631,4.351,0.88,6.99,0.066c1.291-0.392,2.601-1.032,3.825-2.008
			c2.677-2.113,4.484-5.298,5.508-9.601c0.994-0.028,2.027-0.163,3.079-0.479c1.291-0.401,2.601-1.032,3.825-2.008
			c2.687-2.123,4.494-5.336,5.518-9.678c1.453,0.183,3.107,0.135,4.81-0.392c1.291-0.401,2.602-1.042,3.825-2.018
			c2.687-2.123,4.514-5.326,5.527-9.668c1.453,0.182,3.107,0.134,4.81-0.392c1.291-0.402,2.592-1.052,3.815-2.018
			c2.696-2.133,4.514-5.336,5.537-9.678c1.443,0.182,3.107,0.124,4.8-0.392c1.301-0.402,2.602-1.043,3.825-2.018
			c2.696-2.123,4.504-5.336,5.527-9.668c1.463,0.182,3.117,0.114,4.819-0.411c1.281-0.393,2.592-1.033,3.815-2.009
			c5.298-4.159,7.248-12.402,6.196-25.637c0.02,0,0.029,0.01,0.048,0.01C401.045,357.438,401.973,357.208,402.949,356.911z
			 M400.796,260.952c5.002-6.044,9.343-12.852,13.168-18.848c5.518-8.644,11.8-18.446,16.275-18.981
			c2.094-0.249,4.771,1.865,6.646,3.682c0.373,0.373,0.641,0.822,0.852,1.3c-6.924,4.294-12.432,12.862-18.532,22.424
			c-3.796,5.948-7.727,12.116-12.183,17.509c-12.46,15.089-27.406,28.095-34.684,34.109c-2.419-2.057-4.953-3.931-7.611-5.681
			C373.4,289.238,388.47,275.879,400.796,260.952z M197.374,427.253c-0.487-0.238-0.918-0.545-1.205-0.966
			c-1.482-2.17-3.118-5.163-2.515-7.19c1.272-4.342,12.001-8.846,21.458-12.823c6.569-2.754,14.009-5.881,20.817-9.782
			c19.431-11.131,37.36-26.183,44.58-32.513c2.859,1.367,5.757,3.041,8.615,4.991c-0.641,0.297-1.252,0.66-1.798,1.157
			c-0.21,0.201-22.175,20.349-45.479,33.708c-6.072,3.471-12.804,6.292-19.307,9.026C212.129,417.261,202.787,421.2,197.374,427.253
			z M208.887,445.479c-0.889-1.301-1.778-2.907-2.266-4.408c2.209-0.373,4.542-0.89,7.028-1.654
			c27.731-8.501,70.657-40.746,85.88-61.563c1.702,1.788,3.356,3.682,4.896,5.719c-0.048,0.134-0.125,0.238-0.173,0.363
			c-2.744,7.783-18.646,23.131-37.073,36.758c-3.644,2.429-7.392,4.791-11.179,6.962c-6.072,3.471-12.804,6.292-19.306,9.036
			c-7.841,3.299-15.013,6.369-20.416,10.251C213.535,447.268,210.111,447.277,208.887,445.479z M230.565,470.695
			c-2.754,0.364-6.292,0.412-7.554-1.424c-1.473-2.162-3.108-5.164-2.515-7.182c0.229-0.784,0.851-1.568,1.616-2.353
			c1.377-0.306,2.783-0.688,4.236-1.129c13.349-4.102,30.217-13.702,45.833-24.881c20.674-13.359,37.705-29.013,38.518-29.759
			c1.559-1.435,2.267-3.414,2.161-5.374c1.588,3.949,2.831,8.176,3.662,12.747C305.344,428.965,255.351,467.492,230.565,470.695z
			 M316.713,432.321c-0.124,0-0.248,0.038-0.382,0.048c0.21-0.201,0.401-0.401,0.593-0.612
			C316.847,431.968,316.781,432.168,316.713,432.321z M329.04,404.667c-5.986-24.854-23.476-45.499-46.817-54.793
			c-0.269-0.144-0.546-0.239-0.823-0.335c-0.755-0.287-1.481-0.603-2.256-0.87c-0.564-0.211-1.119-0.354-1.674-0.526
			c1.539-0.507,4.676-0.401,9.591,1.32c17.528,6.091,39.207,24.059,42.61,54.602c0.048,0.469,0.077,0.86,0.115,1.301
			C329.556,405.116,329.307,404.877,329.04,404.667z M343.623,407.096c-0.096-1.463-0.21-2.965-0.392-4.562
			c-3.376-30.332-23.668-56.228-51.686-65.962c-0.201-0.067-0.411-0.124-0.622-0.201c1.109-0.812,4.466-1.014,10.289,1.004
			c17.528,6.092,39.197,24.05,42.602,54.583C344.79,400.622,344.197,404.982,343.623,407.096z M357.785,395.037
			c-0.105-1.473-0.22-2.964-0.401-4.562c-3.376-30.342-23.658-56.236-51.686-65.99c-0.201-0.067-0.401-0.105-0.622-0.182
			c1.129-0.813,4.485-1.014,10.299,1.004c17.528,6.091,39.207,24.04,42.602,54.583C358.942,388.573,358.349,392.953,357.785,395.037
			z M371.937,382.922c-0.096-1.444-0.22-2.945-0.392-4.533c-3.376-30.332-23.668-56.236-51.686-65.98
			c-0.211-0.067-0.401-0.125-0.622-0.173c1.119-0.812,4.476-1.022,10.299,0.985c17.519,6.101,39.197,24.059,42.592,54.611
			C373.094,376.457,372.511,380.827,371.937,382.922z M386.08,370.873c-0.095-1.463-0.21-2.975-0.392-4.571
			c-3.376-30.342-23.657-56.237-51.676-65.972c-0.21-0.086-0.411-0.134-0.621-0.2c1.128-0.813,4.484-1.014,10.299,1.004
			c17.527,6.101,39.196,24.059,42.601,54.602C387.247,364.408,386.664,368.778,386.08,370.873z M392.315,320.957
			c-1.071,0.583-2.065,1.052-3.013,1.453c-1.74-2.955-3.652-5.775-5.728-8.463c23.189-12.097,58.981-48.329,66.746-73.421
			c0.058-0.182,0.076-0.334,0.134-0.526c1.157,0.727,2.276,1.702,3.204,2.572c1.491,1.435,1.501,4.103,1.032,6.703
			c-5.097,4.696-9.572,11.619-14.41,19.202c-3.797,5.948-7.736,12.106-12.192,17.499C415.8,300.875,400.223,314.416,392.315,320.957
			z M398.033,344.088c-0.679-2.792-1.52-5.526-2.485-8.204c0.372-0.277,2.343-1.817,5.364-4.304
			c23.208-13.702,57.461-49.485,65.694-74.224c0.497-0.229,0.985-0.44,1.444-0.497c2.104-0.239,4.771,1.874,6.664,3.7
			c1.598,1.54,0.957,5.03,0.135,7.688C466.921,293.789,414.27,341.114,398.033,344.088z"/>
	</g>
</g>
<g>
</g>
<g>
</g>
<g>
</g>
<g>
</g>
<g>
</g>
<g>
</g>
<g>
</g>
<g>
</g>
<g>
</g>
<g>
</g>
<g>
</g>
<g>
</g>
<g>
</g>
<g>
</g>
<g>
</g>
</svg>
