<?xml version="1.0" encoding="iso-8859-1"?>
<!-- Generator: Adobe Illustrator 18.1.1, SVG Export Plug-In . SVG Version: 6.00 Build 0)  -->
<svg version="1.1" id="Capa_1" xmlns="http://www.w3.org/2000/svg" xmlns:xlink="http://www.w3.org/1999/xlink" x="0px" y="0px"
	 viewBox="0 0 459.63 459.63" style="enable-background:new 0 0 459.63 459.63;" xml:space="preserve">
<g>
	<g id="Layer_1_25_">
		<g>
			<path d="M404.815,414.619c0.002-2.604-5.41-4.815-12.87-5.557l0.142-224.06c2.768-1.075,5.289-2.875,7.236-5.39
				c5.746-7.423,4.389-18.099-3.035-23.849l-40.007-30.977c-0.491-0.377-1.068-0.751-1.642-1.042l-1.287-0.659l-55.795-28.531
				c-0.422-0.215-0.921-0.412-1.348-0.633c-13.877-7.245-76.707-6.96-89.61,1.631l-70.497,44.587
				c-8.4,5.325-11.086,16.403-5.967,25.005l28.803,48.404c1.564,2.611,3.756,4.658,6.273,6.075L69.014,402.609
				c-6.897-2.935-12.707-3.597-13.957-1.312s2.447,6.818,8.64,11.039l-0.126,0.228c-1.441,2.637-0.472,5.942,2.166,7.383
				c2.636,1.441,5.94,0.474,7.383-2.161l0.125-0.232c6.896,2.938,12.705,3.601,13.955,1.315s-2.445-6.818-8.639-11.038
				l97.905-186.23c1.55-0.271,3.089-0.758,4.573-1.484c8.285-4.072,11.768-13.986,7.945-22.33l2.188-4.163
				c1.441-2.638,0.473-5.944-2.163-7.384c-1.814-0.993-3.947-0.844-5.57,0.207l-11.098-22.594l28.008-15.701v97.417l-31.271,134.783
				c-14.406-10.581-25.521-18.73-26.799-19.668c-4.123-3.022-9.917-2.13-12.94,1.993c-3.022,4.123-2.131,9.917,1.993,12.939
				c0.91,0.67,91.252,66.914,99.402,73.301c7.49,5.871,17.536,10.713,27.229,10.713c6.006,0,11.875-1.86,16.914-6.488
				c3.768-3.457,4.016-9.313,0.559-13.08c-3.459-3.767-9.314-4.018-13.082-0.56c-4.568,4.195-14.812-0.938-20.197-5.158
				c-3.533-2.771-21.179-15.812-40.687-30.177c2.792-2.438,4.957-5.662,6.104-9.476l41.288-137.281l32.361,56.501l-8.932,63.338
				c-12.307-9.037-21.424-15.721-22.572-16.565c-4.123-3.022-9.917-2.13-12.941,1.993c-3.023,4.123-2.131,9.917,1.992,12.939
				c0.912,0.67,91.254,66.914,99.404,73.301c7.488,5.871,17.535,10.713,27.227,10.713c6.006,0,11.877-1.86,16.916-6.488
				c3.766-3.457,4.016-9.313,0.558-13.08c-3.459-3.767-9.315-4.018-13.082-0.56c-4.565,4.195-14.812-0.938-20.196-5.158
				c-3.68-2.886-22.672-16.915-43.132-31.975c2.307-2.578,3.991-5.772,4.753-9.399l16.71-79.682
				c0.915-4.363,0.446-9.061-1.652-13.38l-0.679-1.396l-30.999-63.789v-94.886l41.614,17.753l40.501,25.932
				c1.419,0.904,2.935,1.564,4.493,2.006l-0.142,223.525c-7.46,0.727-12.878,2.923-12.88,5.528
				c-0.003,2.604,5.412,4.815,12.869,5.557v0.26c-0.002,3.003,2.431,5.444,5.436,5.446c3.004,0.004,5.443-2.432,5.446-5.436
				l-0.001-0.26C399.393,419.422,404.813,417.222,404.815,414.619z"/>
			<path d="M247.717,85.383c23.499,2.75,44.775-14.07,47.522-37.569c2.749-23.495-14.072-44.772-37.571-47.52
				c-23.496-2.749-44.771,14.073-47.52,37.569C207.401,61.364,224.219,82.636,247.717,85.383z"/>
		</g>
	</g>
</g>
<g>
</g>
<g>
</g>
<g>
</g>
<g>
</g>
<g>
</g>
<g>
</g>
<g>
</g>
<g>
</g>
<g>
</g>
<g>
</g>
<g>
</g>
<g>
</g>
<g>
</g>
<g>
</g>
<g>
</g>
</svg>
