<?xml version="1.0" encoding="iso-8859-1"?>
<!-- Generator: Adobe Illustrator 18.1.1, SVG Export Plug-In . SVG Version: 6.00 Build 0)  -->
<svg version="1.1" id="Capa_1" xmlns="http://www.w3.org/2000/svg" xmlns:xlink="http://www.w3.org/1999/xlink" x="0px" y="0px"
	 viewBox="0 0 492 492" style="enable-background:new 0 0 492 492;" xml:space="preserve">
<g>
	<g>
		<g>
			<path style="fill:#010002;" d="M344.6,79c11,0,20.332-3.833,28-11.5c7.666-7.667,11.5-17,11.5-28s-3.834-20.333-11.5-28
				c-7.668-7.667-17-11.5-28-11.5s-20.334,3.833-28,11.5c-7.668,7.667-11.5,17-11.5,28s3.832,20.333,11.5,28
				C324.266,75.167,333.6,79,344.6,79z"/>
			<path style="fill:#010002;" d="M449.1,217c-2.668-6-5.668-9-9-9l-53-19l-25-80l-1-3c0-2-1.834-4.5-5.5-7.5
				c-3.668-3-8.5-5.5-14.5-7.5l-40-16l-5-1c-2.668-1.333-6.834-1.833-12.5-1.5c-5.668,0.327-10.834,2.161-15.5,5.5l-69,38l-2,1
				c-1.333,0.667-3.167,2.5-5.5,5.5s-4.5,6.833-6.5,11.5l-30,61l-1,3c-0.669,2.667-0.336,5.833,1,9.5c1.333,3.667,4.333,6.833,9,9.5
				l4,2c2.667,1.333,6,1.167,10-0.5s7.333-5.167,10-10.5l29-57l49-28l-35,94l-17,124l-54,63l-114-2l-5,20l125,61
				c2.667,1.333,5.667,2.333,9,3c10.667,2.667,20.833,1,30.5-5s15.833-14.667,18.5-26c4-16.667-1-30.667-15-42l48-55
				c6.666-7.333,10.666-14.667,12-22l11-72l68,69v85l-102,22v20l135,31c2.666,0.667,5.666,1,9,1c11.332,0,21-4.167,29-12.5
				s12-18.167,12-29.5c0-6.667-3.834-13.667-11.5-21c-7.668-7.333-13.834-12.167-18.5-14.5c-4.668-2.333-8.668-4.167-12-5.5v-93v-3
				c0.681-2,0.347-5-1-9c-1.334-4-3-8.333-5-13l-64-67l22-60l13,41c2,6.667,6.332,11,13,13l61,24h4c2.662,0.667,5.83,0.167,9.5-1.5
				c3.666-1.667,6.5-4.833,8.5-9.5C451.432,225.667,451.1,221,449.1,217z M206.1,451c-1.333,6-4.667,10.667-10,14s-11,4.333-17,3
				c-1.333,0-2.333-0.333-3-1l-95-46l69,1c0,8,2.333,14,7,18s10,5.833,16,5.5s11-2.833,15-7.5l9-11
				C205.767,433,208.767,441,206.1,451z M368.1,454c6,0,11-2.167,15-6.5s6-9.5,6-15.5v-5c5.332,0,10.666,2.333,16,7
				c5.332,4.667,8,10,8,16c0,6.667-2.168,12.167-6.5,16.5c-4.334,4.333-9.834,6.5-16.5,6.5h-3l-102-23l63-14
				C350.1,448,356.766,454,368.1,454z"/>
		</g>
	</g>
</g>
<g>
</g>
<g>
</g>
<g>
</g>
<g>
</g>
<g>
</g>
<g>
</g>
<g>
</g>
<g>
</g>
<g>
</g>
<g>
</g>
<g>
</g>
<g>
</g>
<g>
</g>
<g>
</g>
<g>
</g>
</svg>
