<?xml version="1.0" encoding="iso-8859-1"?>
<!-- Generator: Adobe Illustrator 16.0.0, SVG Export Plug-In . SVG Version: 6.00 Build 0)  -->
<!DOCTYPE svg PUBLIC "-//W3C//DTD SVG 1.1//EN" "http://www.w3.org/Graphics/SVG/1.1/DTD/svg11.dtd">
<svg version="1.1" id="Capa_1" xmlns="http://www.w3.org/2000/svg" xmlns:xlink="http://www.w3.org/1999/xlink" x="0px" y="0px"
	 width="35.43px" height="35.431px" viewBox="0 0 35.43 35.431" style="enable-background:new 0 0 35.43 35.431;"
	 xml:space="preserve">
<g>
	<path d="M30.93,7.11c0.828,0,1.5-0.671,1.5-1.5s-0.672-1.5-1.5-1.5H19.213V3H30.93c0.828,0,1.5-0.671,1.5-1.5
		c0-0.829-0.672-1.5-1.5-1.5H4.497c-0.828,0-1.5,0.671-1.5,1.5c0,0.829,0.672,1.5,1.5,1.5h11.717v1.11H4.497
		c-0.828,0-1.5,0.671-1.5,1.5s0.672,1.5,1.5,1.5h11.717v2.43h-5.107c-0.588,0-1.121,0.342-1.365,0.876L3.134,24.861
		c-0.232,0.511-0.162,1.106,0.184,1.547l6.607,8.447c0.284,0.362,0.721,0.575,1.182,0.575h13.217c0.461,0,0.896-0.212,1.183-0.575
		l6.608-8.447c0.345-0.439,0.416-1.037,0.183-1.547l-6.61-14.445c-0.244-0.534-0.775-0.876-1.363-0.876h-5.11V7.11H30.93z
		 M29.188,25.279H6.24l5.828-12.74H23.36L29.188,25.279z"/>
</g>
<g>
</g>
<g>
</g>
<g>
</g>
<g>
</g>
<g>
</g>
<g>
</g>
<g>
</g>
<g>
</g>
<g>
</g>
<g>
</g>
<g>
</g>
<g>
</g>
<g>
</g>
<g>
</g>
<g>
</g>
</svg>
