<?xml version="1.0" encoding="iso-8859-1"?>
<!-- Generator: Adobe Illustrator 18.0.0, SVG Export Plug-In . SVG Version: 6.00 Build 0)  -->
<!DOCTYPE svg PUBLIC "-//W3C//DTD SVG 1.1//EN" "http://www.w3.org/Graphics/SVG/1.1/DTD/svg11.dtd">
<svg version="1.1" id="Capa_1" xmlns="http://www.w3.org/2000/svg" xmlns:xlink="http://www.w3.org/1999/xlink" x="0px" y="0px"
	 viewBox="0 0 60.684 60.684" style="enable-background:new 0 0 60.684 60.684;" xml:space="preserve">
<g>
	<path style="fill:#231F20;" d="M3,27.986c3.336,0,6.528-1.11,9.113-3.115c2.59,2.005,5.781,3.115,9.114,3.115
		c3.333,0,6.526-1.11,9.115-3.115c2.586,2.005,5.778,3.115,9.113,3.115c3.334,0,6.526-1.11,9.114-3.115
		c2.587,2.005,5.779,3.115,9.115,3.115c1.657,0,3-1.343,3-3s-1.343-3-3-3c-2.633,0-5.118-1.16-6.817-3.184
		c-0.57-0.678-1.411-1.07-2.297-1.07c0,0,0,0-0.001,0c-0.886,0-1.727,0.392-2.296,1.069c-1.701,2.024-4.187,3.185-6.818,3.185
		c-2.632,0-5.116-1.16-6.814-3.183c-0.57-0.679-1.41-1.071-2.296-1.071h-0.001c-0.885,0-1.726,0.391-2.296,1.069
		c-1.703,2.024-4.188,3.185-6.82,3.185c-2.63,0-5.117-1.161-6.821-3.186c-0.57-0.677-1.41-1.068-2.295-1.068
		c-0.92-0.013-1.729,0.393-2.299,1.072C8.116,20.826,5.633,21.986,3,21.986c-1.657,0-3,1.343-3,3S1.343,27.986,3,27.986z"/>
	<path style="fill:#231F20;" d="M57.684,36.952c-2.634,0-5.119-1.16-6.817-3.184c-0.57-0.679-1.411-1.071-2.297-1.071
		c0,0,0,0-0.001,0c-0.886,0-1.727,0.392-2.297,1.07c-1.701,2.024-4.186,3.185-6.818,3.185c-2.633,0-5.116-1.16-6.814-3.183
		c-0.569-0.679-1.41-1.071-2.296-1.071h-0.001c-0.886,0-1.726,0.391-2.296,1.069c-1.702,2.024-4.188,3.185-6.82,3.185
		c-2.631,0-5.117-1.161-6.821-3.186c-0.57-0.677-1.41-1.068-2.295-1.068c-0.001,0-0.002,0-0.003,0
		c-0.886,0.001-1.727,0.394-2.296,1.073C8.116,35.793,5.634,36.952,3,36.952c-1.657,0-3,1.343-3,3c0,1.657,1.343,3,3,3
		c3.336,0,6.528-1.11,9.113-3.115c2.589,2.005,5.781,3.115,9.114,3.115c3.334,0,6.526-1.11,9.115-3.115
		c2.586,2.005,5.778,3.115,9.113,3.115c3.334,0,6.526-1.11,9.114-3.115c2.587,2.005,5.779,3.115,9.115,3.115c1.657,0,3-1.343,3-3
		C60.684,38.296,59.341,36.952,57.684,36.952z"/>
</g>
<g>
</g>
<g>
</g>
<g>
</g>
<g>
</g>
<g>
</g>
<g>
</g>
<g>
</g>
<g>
</g>
<g>
</g>
<g>
</g>
<g>
</g>
<g>
</g>
<g>
</g>
<g>
</g>
<g>
</g>
</svg>
